<mxfile host="65bd71144e">
    <diagram id="-d94MkXw43fsQPbOM8GI" name="Page-1">
        <mxGraphModel dx="640" dy="540" grid="1" gridSize="10" guides="1" tooltips="1" connect="1" arrows="1" fold="1" page="1" pageScale="1" pageWidth="850" pageHeight="1100" math="0" shadow="0">
            <root>
                <mxCell id="0"/>
                <mxCell id="1" parent="0"/>
                <mxCell id="9" value="message" style="html=1;verticalAlign=bottom;startArrow=none;startFill=0;endArrow=block;startSize=6;endSize=8;fillColor=#1ba1e2;strokeColor=#006EAF;fontColor=#006EAF;endFill=1;labelBackgroundColor=none;" parent="1" edge="1">
                    <mxGeometry x="0.0057" width="80" relative="1" as="geometry">
                        <mxPoint x="20" y="70" as="sourcePoint"/>
                        <mxPoint x="195" y="70" as="targetPoint"/>
                        <mxPoint as="offset"/>
                    </mxGeometry>
                </mxCell>
            </root>
        </mxGraphModel>
    </diagram>
</mxfile>